<?xml version="1.0" encoding="utf-8"?>
<!-- Generator: Adobe Illustrator 28.0.0, SVG Export Plug-In . SVG Version: 6.00 Build 0)  -->
<svg version="1.1" id="Layer_1" xmlns="http://www.w3.org/2000/svg" xmlns:xlink="http://www.w3.org/1999/xlink" x="0px" y="0px"
	 viewBox="0 0 100 50" style="enable-background:new 0 0 100 50;" xml:space="preserve">
<style type="text/css">
	.st0{fill:#E0E1E0;}
</style>
<path class="st0" d="M36.82,18.88c0-1.37,1.11-2.48,2.48-2.48h21.46c1.37,0,2.48,1.11,2.48,2.48v2.48c0,0.46-0.37,0.83-0.83,0.83
	c-1.37,0-2.48,1.11-2.48,2.48s1.11,2.48,2.48,2.48c0.46,0,0.83,0.37,0.83,0.83v2.48c0,1.37-1.11,2.48-2.48,2.48H39.29
	c-1.37,0-2.48-1.11-2.48-2.48v-2.48c0-0.46,0.37-0.83,0.83-0.83c1.37,0,2.48-1.11,2.48-2.48s-1.11-2.48-2.48-2.48
	c-0.46,0-0.83-0.37-0.83-0.83V18.88z M43.42,20.53c0,0.46,0.37,0.83,0.83,0.83H55.8c0.46,0,0.83-0.37,0.83-0.83
	s-0.37-0.83-0.83-0.83H44.24C43.79,19.71,43.42,20.08,43.42,20.53z M43.42,28.79c0,0.46,0.37,0.83,0.83,0.83H55.8
	c0.46,0,0.83-0.37,0.83-0.83s-0.37-0.83-0.83-0.83H44.24C43.79,27.96,43.42,28.33,43.42,28.79z M43.42,24.66
	c0,0.91,0.74,1.65,1.65,1.65h9.9c0.91,0,1.65-0.74,1.65-1.65c0-0.91-0.74-1.65-1.65-1.65h-9.9C44.16,23.01,43.42,23.75,43.42,24.66z
	"/>
</svg>
